<svg xmlns="http://www.w3.org/2000/svg" version="1.1" xmlns:xlink="http://www.w3.org/1999/xlink" xmlns:svgjs="http://svgjs.com/svgjs" width="1980" height="1080" preserveAspectRatio="none" viewBox="0 0 1980 1080"><g mask="url(&quot;#SvgjsMask1011&quot;)" fill="none"><rect width="1980" height="1080" x="0" y="0" fill="#0e2a47"></rect><path d="M1507.84 171.67L1606.37 171.67L1606.37 270.2L1507.84 270.2z" fill="#037b0b"></path><path d="M1593.04 274.06L1674.39 274.06L1674.39 333.02L1593.04 333.02z" stroke="#037b0b"></path><path d="M1954.51 310.92 a11.81 11.81 0 1 0 23.62 0 a11.81 11.81 0 1 0 -23.62 0z" stroke="#e73635"></path><path d="M1600.84 391.24L1627.5 391.24L1627.5 413.96L1600.84 413.96z" stroke="#e73635"></path><path d="M550.62 466.74L630.05 466.74L630.05 546.17L550.62 546.17z" stroke="#e73635"></path><path d="M1075.44 999.52L1113.93 999.52L1113.93 1096.93L1075.44 1096.93z" fill="#037b0b"></path><path d="M1023.13 65.28L1056.64 65.28L1056.64 72.68L1023.13 72.68z" fill="#e73635"></path><path d="M224.12 599.68 a8.41 8.41 0 1 0 16.82 0 a8.41 8.41 0 1 0 -16.82 0z" fill="#e73635"></path><path d="M1951.44 433.54L2025.71 433.54L2025.71 473.54L1951.44 473.54z" fill="#d3b714"></path><path d="M929.16 404.34L956.26 404.34L956.26 431.44L929.16 431.44z" fill="#e73635"></path><path d="M876.2 91.48a39.17 39.17 0 1 0 49.97 60.34z" stroke="#d3b714"></path><path d="M1903.74 1065.4L1924.96 1065.4L1924.96 1086.62L1903.74 1086.62z" fill="#037b0b"></path><path d="M408.92 909.01L450.79 909.01L450.79 950.88L408.92 950.88z" fill="#e73635"></path><path d="M779.13 52.53L840.6 52.53L840.6 114L779.13 114z" stroke="#037b0b"></path><path d="M1636.6 201.43 a84.21 84.21 0 1 0 168.42 0 a84.21 84.21 0 1 0 -168.42 0z" fill="#037b0b"></path><path d="M10.94 354.86 a62.77 62.77 0 1 0 125.54 0 a62.77 62.77 0 1 0 -125.54 0z" fill="#d3b714"></path><path d="M-19.92 677.69 a93 93 0 1 0 186 0 a93 93 0 1 0 -186 0z" fill="#d3b714"></path><path d="M1313.4 801.7a76.22 76.22 0 1 0 71.86 134.44z" fill="#d3b714"></path><path d="M263.25 609.81a15.38 15.38 0 1 0-8.44 29.58z" stroke="#d3b714"></path><path d="M1331.58 869.53a6.14 6.14 0 1 0-4.29 11.5z" stroke="#037b0b"></path><path d="M441.53 25.41L503.7 25.41L503.7 87.58L441.53 87.58z" fill="#037b0b"></path><path d="M71.33 140.88 a24.26 24.26 0 1 0 48.52 0 a24.26 24.26 0 1 0 -48.52 0z" fill="#037b0b"></path><path d="M642.78 431.34L747.65 431.34L747.65 536.21L642.78 536.21z" stroke="#d3b714"></path></g><defs><mask id="SvgjsMask1011"><rect width="1980" height="1080" fill="#ffffff"></rect></mask></defs></svg>