<svg xmlns="http://www.w3.org/2000/svg" xmlns:xlink="http://www.w3.org/1999/xlink" style="margin:auto;background:#070616;display:block;z-index:1;position:relative" width="1600" height="757" preserveAspectRatio="xMidYMid" viewBox="0 0 1600 757">
<g transform="translate(800,378.5) scale(1,1) translate(-800,-378.5)"><defs>
  <path id="path-xg2jy5g9qh-1" d="M-35 -35L35 -35L35 35L-35 35Z" fill="none" stroke="inherit" stroke-width="4.333333333333334" transform="scale(0.3)"></path>
  <path id="path-xg2jy5g9qh-2" d="M0 -37A37 37 0 0 1 0 37A37 37 0 0 1 0 -37" fill="none" stroke="inherit" stroke-width="4.333333333333334" transform="scale(0.3)"></path>
  <path id="path-xg2jy5g9qh-3" d="M0 -34.641L40 34.641L-40 34.641Z" fill="none" stroke="inherit" stroke-width="4.333333333333334" transform="scale(0.3)"></path>
</defs><path id="path0" d="M 113.24315589877656 456.66435236554344
c 0 19.404909944255575 -4.7480098799774275 5.573750728669155 -10.321760608646581 5.573750728669155
S 92.5996346814834 476.069262309799 92.5996346814834 456.66435236554344
s 4.7480098799774275 -5.573750728669155 10.321760608646581 -5.573750728669155
S 113.24315589877656 437.2594424212879 113.24315589877656 456.66435236554344
z" fill="none" stroke="none"></path>
<use xlink:href="#path-xg2jy5g9qh-3" x="0" y="0" stroke="#ddeeff">
  <animateMotion begin="-4.341846728457812s" dur="13.283258931540269s" keyPoints="1;0" keyTimes="0;1" repeatCount="indefinite" calcMode="linear">
    <mpath xlink:href="#path0"></mpath>
  </animateMotion>
</use><path id="path1" d="M 141.37896071874545 79.81481161715368
c 0 50.44299609856039 -12.3424352156052 14.488945687884367 -26.831380903489567 14.488945687884367
S 87.7161989117663 130.25780771571408 87.7161989117663 79.81481161715368
s 12.3424352156052 -14.488945687884367 26.831380903489567 -14.488945687884367
S 141.37896071874545 29.371815518593287 141.37896071874545 79.81481161715368
z" fill="none" stroke="none"></path>
<use xlink:href="#path-xg2jy5g9qh-1" x="0" y="0" stroke="#ddeeff">
  <animateMotion begin="-3.3886621212883394s" dur="13.706367615281572s" keyPoints="1;0" keyTimes="0;1" repeatCount="indefinite" calcMode="linear">
    <mpath xlink:href="#path1"></mpath>
  </animateMotion>
</use><path id="path2" d="M 273.97623061675534 58.08913474663756
c 0 36.02487006916809 -8.814595867987935 10.347569062420622 -19.162164930408558 10.347569062420622
S 235.65190075593824 94.11400481580566 235.65190075593824 58.08913474663756
s 8.814595867987935 -10.347569062420622 19.162164930408558 -10.347569062420622
S 273.97623061675534 22.064264677469474 273.97623061675534 58.08913474663756
z" fill="none" stroke="none"></path>
<use xlink:href="#path-xg2jy5g9qh-2" x="0" y="0" stroke="#aabbcc">
  <animateMotion begin="-3.936665402832559s" dur="12.298483851189708s" keyPoints="1;0" keyTimes="0;1" repeatCount="indefinite" calcMode="linear">
    <mpath xlink:href="#path2"></mpath>
  </animateMotion>
</use><path id="path3" d="M 386.7868907427611 188.89003824819906
c 0 51.01743902430549 -12.482990399564107 14.653945251662217 -27.136935651226324 14.653945251662217
S 332.5130194403084 239.90747727250454 332.5130194403084 188.89003824819906
s 12.482990399564107 -14.653945251662217 27.136935651226324 -14.653945251662217
S 386.7868907427611 137.8725992238936 386.7868907427611 188.89003824819906
z" fill="none" stroke="none"></path>
<use xlink:href="#path-xg2jy5g9qh-3" x="0" y="0" stroke="#aabbcc">
  <animateMotion begin="-0.034383638379644754s" dur="10.334263240866514s" keyPoints="0;1" keyTimes="0;1" repeatCount="indefinite" calcMode="linear">
    <mpath xlink:href="#path3"></mpath>
  </animateMotion>
</use><path id="path4" d="M 395.2396720269478 717.3975496161149
c 0 38.88970695437569 -9.515566595219582 11.170447742214293 -20.686014337433875 11.170447742214293
S 353.86764335208 756.2872565704906 353.86764335208 717.3975496161149
s 9.515566595219582 -11.170447742214293 20.686014337433875 -11.170447742214293
S 395.2396720269478 678.5078426617392 395.2396720269478 717.3975496161149
z" fill="none" stroke="none"></path>
<use xlink:href="#path-xg2jy5g9qh-1" x="0" y="0" stroke="#ddeeff">
  <animateMotion begin="-0.4301947372241033s" dur="12.200590745860502s" keyPoints="1;0" keyTimes="0;1" repeatCount="indefinite" calcMode="linear">
    <mpath xlink:href="#path4"></mpath>
  </animateMotion>
</use><path id="path5" d="M 548.108036270507 78.32345661933107
c 0 60.04037715815774 -14.69073058125136 17.245640247555947 -31.936370828807306 17.245640247555947
S 484.2352946128924 138.36383377748882 484.2352946128924 78.32345661933107
s 14.69073058125136 -17.245640247555947 31.936370828807306 -17.245640247555947
S 548.108036270507 18.28307946117333 548.108036270507 78.32345661933107
z" fill="none" stroke="none"></path>
<use xlink:href="#path-xg2jy5g9qh-3" x="0" y="0" stroke="#aabbcc">
  <animateMotion begin="-2.6786225726149637s" dur="16.00282725490822s" keyPoints="1;0" keyTimes="0;1" repeatCount="indefinite" calcMode="linear">
    <mpath xlink:href="#path5"></mpath>
  </animateMotion>
</use><path id="path6" d="M 641.0908084115762 729.5218857404467
c 0 64.03201707536913 -15.667408433334998 18.39217511739326 -34.059583550728256 18.39217511739326
S 572.9716413101197 793.5539028158158 572.9716413101197 729.5218857404467
s 15.667408433334998 -18.39217511739326 34.059583550728256 -18.39217511739326
S 641.0908084115762 665.4898686650776 641.0908084115762 729.5218857404467
z" fill="none" stroke="none"></path>
<use xlink:href="#path-xg2jy5g9qh-2" x="0" y="0" stroke="#ddeeff">
  <animateMotion begin="-1.523323468028629s" dur="18.19509993776957s" keyPoints="1;0" keyTimes="0;1" repeatCount="indefinite" calcMode="linear">
    <mpath xlink:href="#path6"></mpath>
  </animateMotion>
</use><path id="path7" d="M 693.1509631742849 530.2524775616914
c 0 43.70477784973764 -10.693722239829421 12.553500020669322 -23.247222260498745 12.553500020669322
S 646.6565186532873 573.9572554114291 646.6565186532873 530.2524775616914
s 10.693722239829421 -12.553500020669322 23.247222260498745 -12.553500020669322
S 693.1509631742849 486.5476997119538 693.1509631742849 530.2524775616914
z" fill="none" stroke="none"></path>
<use xlink:href="#path-xg2jy5g9qh-1" x="0" y="0" stroke="#aabbcc">
  <animateMotion begin="-0.08827676136783813s" dur="10.356489060213185s" keyPoints="1;0" keyTimes="0;1" repeatCount="indefinite" calcMode="linear">
    <mpath xlink:href="#path7"></mpath>
  </animateMotion>
</use><path id="path8" d="M 821.3085486824785 601.2088454366451
c 0 50.02042416759983 -12.239039955902083 14.367568643885058 -26.60660859978714 14.367568643885058
S 768.0953314829043 651.2292696042449 768.0953314829043 601.2088454366451
s 12.239039955902083 -14.367568643885058 26.60660859978714 -14.367568643885058
S 821.3085486824785 551.1884212690453 821.3085486824785 601.2088454366451
z" fill="none" stroke="none"></path>
<use xlink:href="#path-xg2jy5g9qh-1" x="0" y="0" stroke="#bbddff">
  <animateMotion begin="-4.9278720721659175s" dur="11.865383723957603s" keyPoints="0;1" keyTimes="0;1" repeatCount="indefinite" calcMode="linear">
    <mpath xlink:href="#path8"></mpath>
  </animateMotion>
</use><path id="path9" d="M 874.9275457859908 324.64627569018546
c 0 49.51232431714961 -12.11471765206852 14.22162506981957 -26.33634272188809 14.22162506981957
S 822.2548603422147 374.15860000733505 822.2548603422147 324.64627569018546
s 12.11471765206852 -14.22162506981957 26.33634272188809 -14.22162506981957
S 874.9275457859908 275.13395137303587 874.9275457859908 324.64627569018546
z" fill="none" stroke="none"></path>
<use xlink:href="#path-xg2jy5g9qh-1" x="0" y="0" stroke="#aabbcc">
  <animateMotion begin="-2.0138646422992332s" dur="17.54316834221474s" keyPoints="1;0" keyTimes="0;1" repeatCount="indefinite" calcMode="linear">
    <mpath xlink:href="#path9"></mpath>
  </animateMotion>
</use><path id="path10" d="M 950.3362926633454 284.5831504765425
c 0 59.8607807074325 -14.646786768839865 17.19405403298593 -31.840840801825795 17.19405403298593
S 886.6546110596937 344.443931183975 886.6546110596937 284.5831504765425
s 14.646786768839865 -17.19405403298593 31.840840801825795 -17.19405403298593
S 950.3362926633454 224.72236976911003 950.3362926633454 284.5831504765425
z" fill="none" stroke="none"></path>
<use xlink:href="#path-xg2jy5g9qh-2" x="0" y="0" stroke="#ddeeff">
  <animateMotion begin="-4.5663658195848535s" dur="14.12116495034844s" keyPoints="1;0" keyTimes="0;1" repeatCount="indefinite" calcMode="linear">
    <mpath xlink:href="#path10"></mpath>
  </animateMotion>
</use><path id="path11" d="M 1068.4284776031109 450.7348250640605
c 0 21.468243486612778 -5.252868087149934 6.166410363176011 -11.419278450325944 6.166410363176011
S 1045.589920702459 472.20306855067327 1045.589920702459 450.7348250640605
s 5.252868087149934 -6.166410363176011 11.419278450325944 -6.166410363176011
S 1068.4284776031109 429.2665815774477 1068.4284776031109 450.7348250640605
z" fill="none" stroke="none"></path>
<use xlink:href="#path-xg2jy5g9qh-1" x="0" y="0" stroke="#aabbcc">
  <animateMotion begin="-0.4905606424731057s" dur="14.027481751666134s" keyPoints="0;1" keyTimes="0;1" repeatCount="indefinite" calcMode="linear">
    <mpath xlink:href="#path11"></mpath>
  </animateMotion>
</use><path id="path12" d="M 1084.8779254395204 412.1206900389523
c 0 45.6501997557289 -11.169729727465581 13.112291419198726 -24.282021146664306 13.112291419198726
S 1036.313883146192 457.77088979468124 1036.313883146192 412.1206900389523
s 11.169729727465581 -13.112291419198726 24.282021146664306 -13.112291419198726
S 1084.8779254395204 366.4704902832234 1084.8779254395204 412.1206900389523
z" fill="none" stroke="none"></path>
<use xlink:href="#path-xg2jy5g9qh-1" x="0" y="0" stroke="#bbddff">
  <animateMotion begin="-4.37525661360084s" dur="17.462006979818455s" keyPoints="1;0" keyTimes="0;1" repeatCount="indefinite" calcMode="linear">
    <mpath xlink:href="#path12"></mpath>
  </animateMotion>
</use><path id="path13" d="M 1233.7901013986002 423.7904144109206
c 0 57.86303474950479 -14.157976587644788 16.620233385496057 -30.778209973140847 16.620233385496057
S 1172.2336814523187 481.6534491604254 1172.2336814523187 423.7904144109206
s 14.157976587644788 -16.620233385496057 30.778209973140847 -16.620233385496057
S 1233.7901013986002 365.92737966141584 1233.7901013986002 423.7904144109206
z" fill="none" stroke="none"></path>
<use xlink:href="#path-xg2jy5g9qh-3" x="0" y="0" stroke="#bbddff">
  <animateMotion begin="-0.4713971272126394s" dur="16.748200643192575s" keyPoints="0;1" keyTimes="0;1" repeatCount="indefinite" calcMode="linear">
    <mpath xlink:href="#path13"></mpath>
  </animateMotion>
</use><path id="path14" d="M 1279.1033165064591 498.35479483537716
c 0 47.139014201014454 -11.534014113014173 13.539929610929683 -25.073943723943856 13.539929610929683
S 1228.9554290585716 545.4938090363917 1228.9554290585716 498.35479483537716
s 11.534014113014173 -13.539929610929683 25.073943723943856 -13.539929610929683
S 1279.1033165064591 451.2157806343627 1279.1033165064591 498.35479483537716
z" fill="none" stroke="none"></path>
<use xlink:href="#path-xg2jy5g9qh-1" x="0" y="0" stroke="#aabbcc">
  <animateMotion begin="-0.14505420551803705s" dur="17.33046427195909s" keyPoints="1;0" keyTimes="0;1" repeatCount="indefinite" calcMode="linear">
    <mpath xlink:href="#path14"></mpath>
  </animateMotion>
</use><path id="path15" d="M 1349.352775148949 141.65751341080664
c 0 53.189338123530575 -13.014412519587266 15.27778860995027 -28.29220112953754 15.27778860995027
S 1292.768372889874 194.84685153433722 1292.768372889874 141.65751341080664
s 13.014412519587266 -15.27778860995027 28.29220112953754 -15.27778860995027
S 1349.352775148949 88.46817528727607 1349.352775148949 141.65751341080664
z" fill="none" stroke="none"></path>
<use xlink:href="#path-xg2jy5g9qh-1" x="0" y="0" stroke="#bbddff">
  <animateMotion begin="-4.665509765951988s" dur="11.392603252795347s" keyPoints="0;1" keyTimes="0;1" repeatCount="indefinite" calcMode="linear">
    <mpath xlink:href="#path15"></mpath>
  </animateMotion>
</use><path id="path16" d="M 1448.9249188011404 211.56540456064204
c 0 19.326334137152408 -4.7287838846223975 5.551181081948032 -10.279964966570429 5.551181081948032
S 1428.3649888679997 230.89173869779444 1428.3649888679997 211.56540456064204
s 4.7287838846223975 -5.551181081948032 10.279964966570429 -5.551181081948032
S 1448.9249188011404 192.23907042348964 1448.9249188011404 211.56540456064204
z" fill="none" stroke="none"></path>
<use xlink:href="#path-xg2jy5g9qh-3" x="0" y="0" stroke="#ddeeff">
  <animateMotion begin="-3.7469941274309635s" dur="17.196440781693695s" keyPoints="0;1" keyTimes="0;1" repeatCount="indefinite" calcMode="linear">
    <mpath xlink:href="#path16"></mpath>
  </animateMotion>
</use><path id="path17" d="M 1567.8718558184464 688.8330603679735
c 0 32.169983061957986 -7.871378834308867 9.24031428375389 -17.111693118062757 9.24031428375389
S 1533.648469582321 721.0030434299315 1533.648469582321 688.8330603679735
s 7.871378834308867 -9.24031428375389 17.111693118062757 -9.24031428375389
S 1567.8718558184464 656.6630773060156 1567.8718558184464 688.8330603679735
z" fill="none" stroke="none"></path>
<use xlink:href="#path-xg2jy5g9qh-2" x="0" y="0" stroke="#ddeeff">
  <animateMotion begin="-1.8088941458276397s" dur="13.020142132832927s" keyPoints="0;1" keyTimes="0;1" repeatCount="indefinite" calcMode="linear">
    <mpath xlink:href="#path17"></mpath>
  </animateMotion>
</use></g>
</svg>